<mxfile host="Electron" modified="2024-07-24T10:46:07.899Z" agent="Mozilla/5.0 (Windows NT 10.0; Win64; x64) AppleWebKit/537.36 (KHTML, like Gecko) draw.io/23.1.5 Chrome/120.0.6099.109 Electron/28.1.0 Safari/537.36" etag="hepY59D16HttrSBwoxPi" version="23.1.5" type="device">
  <diagram name="Page-1" id="31T8ClQI4crDDo8kncTz">
    <mxGraphModel dx="1509" dy="888" grid="1" gridSize="10" guides="1" tooltips="1" connect="1" arrows="1" fold="1" page="1" pageScale="1" pageWidth="850" pageHeight="1100" math="0" shadow="0">
      <root>
        <mxCell id="0" />
        <mxCell id="1" parent="0" />
        <mxCell id="GSx8xYBXj51S10lptRIn-39" style="edgeStyle=orthogonalEdgeStyle;rounded=0;orthogonalLoop=1;jettySize=auto;html=1;exitX=1;exitY=0.5;exitDx=0;exitDy=0;entryX=0;entryY=0.5;entryDx=0;entryDy=0;" edge="1" parent="1" source="GSx8xYBXj51S10lptRIn-1" target="GSx8xYBXj51S10lptRIn-37">
          <mxGeometry relative="1" as="geometry" />
        </mxCell>
        <mxCell id="GSx8xYBXj51S10lptRIn-1" value="published&lt;br style=&quot;font-size: 14px;&quot;&gt;version&lt;br style=&quot;font-size: 14px;&quot;&gt;&lt;br style=&quot;font-size: 14px;&quot;&gt;&lt;br style=&quot;font-size: 14px;&quot;&gt;&lt;br style=&quot;font-size: 14px;&quot;&gt;&lt;br style=&quot;font-size: 14px;&quot;&gt;&lt;br style=&quot;font-size: 14px;&quot;&gt;&lt;br style=&quot;font-size: 14px;&quot;&gt;&lt;br style=&quot;font-size: 14px;&quot;&gt;&lt;br style=&quot;font-size: 14px;&quot;&gt;&lt;br style=&quot;font-size: 14px;&quot;&gt;&lt;br style=&quot;font-size: 14px;&quot;&gt;&lt;br style=&quot;font-size: 14px;&quot;&gt;&lt;br style=&quot;font-size: 14px;&quot;&gt;&lt;br style=&quot;font-size: 14px;&quot;&gt;&lt;br style=&quot;font-size: 14px;&quot;&gt;&lt;div style=&quot;font-size: 14px;&quot;&gt;&lt;br style=&quot;font-size: 14px;&quot;&gt;&lt;/div&gt;&lt;div style=&quot;font-size: 14px;&quot;&gt;&lt;br&gt;&lt;/div&gt;&lt;div style=&quot;font-size: 14px;&quot;&gt;&lt;br&gt;&lt;/div&gt;&lt;div style=&quot;font-size: 14px;&quot;&gt;&lt;br&gt;&lt;/div&gt;&lt;div style=&quot;font-size: 14px;&quot;&gt;&lt;br&gt;&lt;/div&gt;" style="rounded=0;whiteSpace=wrap;html=1;fontSize=14;" vertex="1" parent="1">
          <mxGeometry x="240" y="150" width="200" height="390" as="geometry" />
        </mxCell>
        <mxCell id="GSx8xYBXj51S10lptRIn-3" value="document&lt;br&gt;API type=REST&lt;br&gt;hash1" style="rounded=0;whiteSpace=wrap;html=1;" vertex="1" parent="1">
          <mxGeometry x="280" y="190" width="120" height="60" as="geometry" />
        </mxCell>
        <mxCell id="GSx8xYBXj51S10lptRIn-27" value="document&lt;br&gt;API type=GRAPHQL&lt;br&gt;hash3" style="rounded=0;whiteSpace=wrap;html=1;" vertex="1" parent="1">
          <mxGeometry x="280" y="350" width="120" height="60" as="geometry" />
        </mxCell>
        <mxCell id="GSx8xYBXj51S10lptRIn-28" value="document&lt;br&gt;API type=unknown&lt;br&gt;hash4" style="rounded=0;whiteSpace=wrap;html=1;" vertex="1" parent="1">
          <mxGeometry x="280" y="430" width="120" height="60" as="geometry" />
        </mxCell>
        <mxCell id="GSx8xYBXj51S10lptRIn-29" value="document&lt;br&gt;API type=REST&lt;br&gt;hash2" style="rounded=0;whiteSpace=wrap;html=1;" vertex="1" parent="1">
          <mxGeometry x="280" y="270" width="120" height="60" as="geometry" />
        </mxCell>
        <mxCell id="GSx8xYBXj51S10lptRIn-48" style="edgeStyle=orthogonalEdgeStyle;rounded=0;orthogonalLoop=1;jettySize=auto;html=1;exitX=1;exitY=0.5;exitDx=0;exitDy=0;entryX=0;entryY=0.5;entryDx=0;entryDy=0;" edge="1" parent="1" source="GSx8xYBXj51S10lptRIn-37" target="GSx8xYBXj51S10lptRIn-43">
          <mxGeometry relative="1" as="geometry" />
        </mxCell>
        <mxCell id="GSx8xYBXj51S10lptRIn-37" value="&lt;font style=&quot;font-size: 14px;&quot;&gt;Validation tasks&lt;/font&gt;" style="swimlane;whiteSpace=wrap;html=1;" vertex="1" parent="1">
          <mxGeometry x="530" y="27.5" width="240" height="635" as="geometry" />
        </mxCell>
        <mxCell id="GSx8xYBXj51S10lptRIn-30" value="Validation task&lt;br&gt;-----&lt;br style=&quot;font-size: 14px;&quot;&gt;type=version&lt;br&gt;dependencies(document validation task IDs)" style="rounded=0;whiteSpace=wrap;html=1;fontSize=14;" vertex="1" parent="GSx8xYBXj51S10lptRIn-37">
          <mxGeometry x="20" y="45" width="200" height="120" as="geometry" />
        </mxCell>
        <mxCell id="GSx8xYBXj51S10lptRIn-31" value="Validation task&lt;br&gt;-----&lt;br style=&quot;font-size: 14px;&quot;&gt;type=document&lt;div&gt;API type=REST&lt;/div&gt;&lt;div&gt;hash=hash1&lt;/div&gt;" style="rounded=0;whiteSpace=wrap;html=1;fontSize=14;" vertex="1" parent="GSx8xYBXj51S10lptRIn-37">
          <mxGeometry x="20" y="195" width="200" height="120" as="geometry" />
        </mxCell>
        <mxCell id="GSx8xYBXj51S10lptRIn-32" value="Validation task&lt;br&gt;-----&lt;br style=&quot;font-size: 14px;&quot;&gt;type=document&lt;div&gt;API type=REST&lt;/div&gt;&lt;div&gt;hash=hash2&lt;/div&gt;" style="rounded=0;whiteSpace=wrap;html=1;fontSize=14;" vertex="1" parent="GSx8xYBXj51S10lptRIn-37">
          <mxGeometry x="20" y="345" width="200" height="120" as="geometry" />
        </mxCell>
        <mxCell id="GSx8xYBXj51S10lptRIn-36" value="Validation task&lt;br&gt;-----&lt;br style=&quot;font-size: 14px;&quot;&gt;type=document&lt;div&gt;API type=GRAPHQL&lt;/div&gt;&lt;div&gt;hash=hash3&lt;/div&gt;" style="rounded=0;whiteSpace=wrap;html=1;fontSize=14;" vertex="1" parent="GSx8xYBXj51S10lptRIn-37">
          <mxGeometry x="20" y="495" width="200" height="120" as="geometry" />
        </mxCell>
        <mxCell id="GSx8xYBXj51S10lptRIn-43" value="&lt;font style=&quot;font-size: 14px;&quot;&gt;Validation result&lt;/font&gt;" style="swimlane;whiteSpace=wrap;html=1;" vertex="1" parent="1">
          <mxGeometry x="850" y="27.5" width="240" height="635" as="geometry" />
        </mxCell>
        <mxCell id="GSx8xYBXj51S10lptRIn-44" value="Version validation result&lt;br style=&quot;border-color: var(--border-color);&quot;&gt;(?????????)&lt;br style=&quot;border-color: var(--border-color);&quot;&gt;-----&lt;br style=&quot;border-color: var(--border-color);&quot;&gt;summary" style="rounded=0;whiteSpace=wrap;html=1;fontSize=14;fillColor=#f8cecc;strokeColor=#b85450;" vertex="1" parent="GSx8xYBXj51S10lptRIn-43">
          <mxGeometry x="20" y="45" width="200" height="120" as="geometry" />
        </mxCell>
        <mxCell id="GSx8xYBXj51S10lptRIn-45" value="Document validation result&lt;br style=&quot;border-color: var(--border-color);&quot;&gt;-----&lt;br style=&quot;border-color: var(--border-color);&quot;&gt;hash1&lt;br style=&quot;border-color: var(--border-color);&quot;&gt;summary&lt;br style=&quot;border-color: var(--border-color);&quot;&gt;message[]" style="rounded=0;whiteSpace=wrap;html=1;fontSize=14;" vertex="1" parent="GSx8xYBXj51S10lptRIn-43">
          <mxGeometry x="20" y="195" width="200" height="120" as="geometry" />
        </mxCell>
        <mxCell id="GSx8xYBXj51S10lptRIn-46" value="Document validation result&lt;br style=&quot;border-color: var(--border-color);&quot;&gt;-----&lt;br style=&quot;border-color: var(--border-color);&quot;&gt;hash2&lt;br style=&quot;border-color: var(--border-color);&quot;&gt;summary&lt;br style=&quot;border-color: var(--border-color);&quot;&gt;message[]" style="rounded=0;whiteSpace=wrap;html=1;fontSize=14;" vertex="1" parent="GSx8xYBXj51S10lptRIn-43">
          <mxGeometry x="20" y="345" width="200" height="120" as="geometry" />
        </mxCell>
        <mxCell id="GSx8xYBXj51S10lptRIn-47" value="Document validation result&lt;br style=&quot;border-color: var(--border-color);&quot;&gt;-----&lt;br style=&quot;border-color: var(--border-color);&quot;&gt;hash3&lt;br style=&quot;border-color: var(--border-color);&quot;&gt;summary&lt;br style=&quot;border-color: var(--border-color);&quot;&gt;message[]" style="rounded=0;whiteSpace=wrap;html=1;fontSize=14;" vertex="1" parent="GSx8xYBXj51S10lptRIn-43">
          <mxGeometry x="20" y="495" width="200" height="120" as="geometry" />
        </mxCell>
      </root>
    </mxGraphModel>
  </diagram>
</mxfile>
